# xmcd
# 
# Track frame offsets:
#     150
#     14725
#     35175
#     54400
#     66650
#     86650
#     116462
#     138862
#     157062
#     178450
#     195587
#     202550
#     223800
#     245625
# 
# Disc length: 3544
# 
# Revision: 7
# Processed by: cddbd v1.5.2PL0 Copyright (c) Steve Scherf et al.
# Submitted via: BonkEnc v1.0.6
# 
DISCID=d70dd60e
DTITLE=Santana - Samba Pa Ti
DYEAR=1997
DGENRE=Blues
TTITLE0=Black Magic Woman (single version)
TTITLE1=Samba Pa Ti
TTITLE2=Oye Como Va
TTITLE3=Let The Children Play
TTITLE4=Gipsy Woman
TTITLE5=Soul Sacrifice
TTITLE6=Europa (Earth's Cry Heaven's Smile)
TTITLE7=She's Not There
TTITLE8=Stormy
TTITLE9=Lightning In The Sky
TTITLE10=Shango
TTITLE11=I Love You Too Much
TTITLE12=Flor D'Luna (Moonflower)
TTITLE13=Hold On
EXTD=CBU 67502, Sony Germany GmbH
EXTT0=
EXTT1=
EXTT2=
EXTT3=
EXTT4=
EXTT5=
EXTT6=
EXTT7=
EXTT8=
EXTT9=
EXTT10=
EXTT11=
EXTT12=
EXTT13=
PLAYORDER=
